<?xml version="1.0" standalone="no"?>
<!DOCTYPE svg PUBLIC "-//W3C//DTD SVG 20010904//EN"
 "http://www.w3.org/TR/2001/REC-SVG-20010904/DTD/svg10.dtd">
<svg version="1.0" xmlns="http://www.w3.org/2000/svg"
 width="960.000000pt" height="720.000000pt" viewBox="0 0 960.000000 720.000000"
 preserveAspectRatio="xMidYMid meet">
<metadata>
Created by potrace 1.16, written by Peter Selinger 2001-2019
</metadata>
<g transform="translate(0.000000,720.000000) scale(0.100000,-0.100000)"
fill="#000000" stroke="none">
<path d="M6423 6773 c-7 -2 -13 -11 -13 -18 0 -7 -55 -58 -122 -112 -139 -111
-143 -114 -253 -173 -94 -49 -175 -100 -175 -108 0 -3 7 -13 16 -23 14 -16 12
-19 -30 -49 -53 -36 -56 -47 -20 -61 32 -11 62 -4 87 23 11 10 24 17 30 15 5
-1 86 -118 178 -258 150 -226 170 -263 192 -339 90 -311 87 -708 -6 -1075 -16
-60 -80 -251 -113 -335 -39 -100 -157 -316 -233 -427 -153 -224 -350 -435
-611 -653 -142 -119 -216 -187 -415 -380 -312 -302 -491 -434 -800 -587 -469
-233 -550 -271 -559 -262 -6 5 1 23 18 46 86 118 232 378 279 499 8 22 38 68
66 101 28 34 51 70 51 81 0 50 -92 82 -232 82 l-80 0 6 25 c5 21 2 27 -19 35
-54 20 -86 13 -122 -29 -18 -22 -43 -41 -56 -43 -16 -2 -21 -9 -19 -27 1 -13
-10 -38 -26 -59 -48 -61 -143 -226 -251 -436 -196 -381 -306 -537 -565 -803
l-134 -138 21 -29 21 -29 -22 6 c-12 4 -31 10 -42 13 -67 21 51 -91 146 -139
107 -53 196 -80 514 -156 122 -30 349 -97 560 -166 419 -138 550 -176 726
-211 141 -27 219 -29 219 -5 0 8 -14 19 -32 25 -17 6 -35 14 -39 18 -3 4 11
27 33 52 53 61 132 178 150 226 9 22 24 42 34 45 21 7 26 25 8 25 -8 0 -8 4 0
14 26 32 -17 65 -119 91 -36 9 -141 41 -235 70 -166 53 -275 85 -617 179 -213
60 -298 88 -296 101 0 6 64 36 142 67 184 75 484 225 666 334 163 97 620 398
750 495 507 374 755 579 1051 866 562 546 932 1093 1112 1643 24 74 67 277 78
364 25 218 -4 510 -75 765 -22 78 -93 242 -135 312 -74 122 -179 226 -327 323
-49 32 -100 66 -114 75 -14 10 -51 32 -82 50 -32 18 -58 36 -58 41 0 18 -78
35 -107 23z m162 -164 c48 -38 70 -63 89 -105 14 -30 56 -103 95 -162 97 -150
145 -239 170 -313 29 -88 77 -383 91 -563 14 -169 11 -222 -26 -496 -24 -179
-30 -204 -72 -305 -134 -325 -297 -602 -507 -865 -51 -63 -128 -169 -173 -235
-113 -168 -105 -159 -322 -375 -182 -181 -463 -434 -607 -547 -336 -262 -359
-279 -638 -466 -427 -286 -857 -522 -1300 -712 -99 -42 -186 -82 -193 -89 -10
-10 -8 -16 8 -34 12 -12 29 -22 39 -22 29 0 176 -53 370 -134 241 -101 337
-127 636 -177 138 -23 261 -47 275 -53 14 -7 44 -18 68 -26 28 -9 42 -19 42
-31 0 -9 -29 -57 -63 -105 -35 -49 -72 -105 -82 -124 -10 -19 -18 -36 -19 -37
-1 -1 -64 9 -141 23 -157 27 -178 33 -540 151 -205 67 -437 134 -540 158 -5 1
-17 4 -25 7 -8 3 -46 14 -85 23 -99 25 -229 68 -300 100 -33 15 -85 36 -114
47 -51 19 -151 99 -151 120 0 4 11 13 25 18 14 5 44 27 67 48 24 21 68 56 98
78 204 151 314 301 630 857 30 54 80 141 111 195 30 53 75 132 100 176 l44 78
59 -6 c32 -3 77 -6 100 -6 23 0 48 -5 56 -10 13 -9 10 -15 -16 -38 -19 -17
-69 -101 -131 -222 -55 -107 -131 -251 -169 -320 -65 -118 -88 -162 -113 -220
-6 -14 -20 -36 -31 -50 -26 -33 -18 -56 26 -70 30 -10 39 -8 101 28 169 97
264 148 483 257 268 134 305 154 452 244 172 106 296 201 434 334 124 119 349
320 444 396 25 20 61 50 80 67 19 17 60 53 90 79 138 120 339 325 434 443 185
232 404 707 476 1033 66 293 67 490 5 819 -28 146 -79 321 -124 425 -50 113
-153 261 -233 334 -84 75 -92 62 135 214 111 74 223 153 247 176 25 22 51 40
58 41 7 0 41 -23 77 -51z m189 -140 c86 -70 173 -169 204 -233 34 -72 112
-334 148 -503 49 -227 38 -532 -27 -775 -28 -102 -36 -86 -18 36 9 55 14 167
13 286 -2 455 -96 837 -258 1049 -59 77 -126 171 -126 176 0 11 15 2 64 -36z
m-2773 -5245 c107 -31 212 -60 234 -65 39 -10 166 -46 195 -57 8 -3 20 -6 27
-8 50 -10 244 -82 258 -95 14 -14 2 -12 -138 30 -152 45 -339 93 -476 122
-138 29 -296 82 -274 91 16 6 16 8 -4 14 -13 3 -23 10 -23 15 0 12 -17 16 201
-47z"/>
</g>
</svg>
